<?xml version="1.0" encoding="UTF-8" standalone="no"?>
<!-- Created with Inkscape (http://www.inkscape.org/) -->

<svg
   width="90.0mm"
   height="40.0mm"
   viewBox="0 0 90.0 40.0"
   version="1.1"
   id="svg5"
   sodipodi:docname="drawing.svg"
   inkscape:version="1.1.1 (3bf5ae0d25, 2021-09-20)"
   xmlns:inkscape="http://www.inkscape.org/namespaces/inkscape"
   xmlns:sodipodi="http://sodipodi.sourceforge.net/DTD/sodipodi-0.dtd"
   xmlns="http://www.w3.org/2000/svg"
   xmlns:svg="http://www.w3.org/2000/svg">
  <sodipodi:namedview
     id="namedview7"
     pagecolor="#ffffff"
     bordercolor="#666666"
     borderopacity="1.0"
     inkscape:pageshadow="2"
     inkscape:pageopacity="0.0"
     inkscape:pagecheckerboard="0"
     inkscape:document-units="mm"
     showgrid="false"
     inkscape:zoom="1.8116734"
     inkscape:cx="275.71194"
     inkscape:cy="85.004282"
     inkscape:window-width="1920"
     inkscape:window-height="1028"
     inkscape:window-x="-8"
     inkscape:window-y="-8"
     inkscape:window-maximized="1"
     inkscape:current-layer="g19" />
  <defs
     id="defs2" />
  <g
     inkscape:label="[fixed] BG"
     inkscape:groupmode="layer"
     sodipodi:insensitive="true"
     id="g17">
    <rect
       x="0"
       y="0"
       width="90.0"
       height="40.0"
       style="fill:#FFFFFF;fill-opacity:1;stroke:none"
       id="rect15" />
  </g>
  <g
     inkscape:label="Edge.Cuts"
     inkscape:groupmode="layer"
     id="g19"
     style="display:inline">
    <path
       d="M 13.3823 4.351 L 13.9446 4.37939 L 14.4908 4.46274 L 15.0178 4.59826 L 15.5232 4.78321 L 16.0039 5.01481 L 16.4574 5.2903 L 16.8808 5.60692 L 17.2714 5.96189 L 17.6264 6.35247 L 17.943 6.77587 L 18.2185 7.22935 L 18.4501 7.71012 L 18.635 8.21544 L 18.7706 8.74253 L 18.8539 9.28863 L 18.8823 9.85098 L 18.8539 10.4133 L 18.7706 10.9594 L 18.635 11.4865 L 18.4501 11.9919 L 18.2185 12.4726 L 17.943 12.9261 L 17.6264 13.3495 L 17.2714 13.7401 L 16.8808 14.0951 L 16.4574 14.4117 L 16.0039 14.6872 L 15.5232 14.9188 L 15.0178 15.1037 L 14.4908 15.2393 L 13.9446 15.3226 L 13.3823 15.351 L 12.8199 15.3226 L 12.2738 15.2393 L 11.7468 15.1037 L 11.2414 14.9188 L 10.7607 14.6872 L 10.3072 14.4117 L 9.88378 14.0951 L 9.4932 13.7401 L 9.13823 13.3495 L 8.82161 12.9261 L 8.54612 12.4726 L 8.31452 11.9919 L 8.12957 11.4865 L 7.99405 10.9594 L 7.9107 10.4133 L 7.88231 9.85098 L 7.9107 9.28863 L 7.99405 8.74253 L 8.12957 8.21544 L 8.31452 7.71012 L 8.54612 7.22935 L 8.82161 6.77587 L 9.13823 6.35247 L 9.4932 5.96189 L 9.88378 5.60692 L 10.3072 5.2903 L 10.7607 5.01481 L 11.2414 4.78321 L 11.7468 4.59826 L 12.2738 4.46274 L 12.8199 4.37939 L 13.3823 4.351 L 13.3823 4.351"
       style="fill:none;stroke:#000003;stroke-width:0.0762;stroke-linecap:butt;stroke-linejoin:miter;stroke-miterlimit:22.9256;stroke-dasharray:none;stroke-opacity:1"
       id="path62" />
    <path
       d="M 26.07 4.351 L 26.6324 4.37939 L 27.1785 4.46274 L 27.7056 4.59826 L 28.2109 4.78321 L 28.6916 5.01481 L 29.1451 5.2903 L 29.5685 5.60692 L 29.9591 5.96189 L 30.3141 6.35247 L 30.6307 6.77587 L 30.9062 7.22935 L 31.1378 7.71012 L 31.3227 8.21544 L 31.4583 8.74253 L 31.5416 9.28863 L 31.57 9.85098 L 31.5416 10.4133 L 31.4583 10.9594 L 31.3227 11.4865 L 31.1378 11.9919 L 30.9062 12.4726 L 30.6307 12.9261 L 30.3141 13.3495 L 29.9591 13.7401 L 29.5685 14.0951 L 29.1451 14.4117 L 28.6916 14.6872 L 28.2109 14.9188 L 27.7056 15.1037 L 27.1785 15.2393 L 26.6324 15.3226 L 26.07 15.351 L 25.5077 15.3226 L 24.9616 15.2393 L 24.4345 15.1037 L 23.9292 14.9188 L 23.4484 14.6872 L 22.9949 14.4117 L 22.5715 14.0951 L 22.1809 13.7401 L 21.8259 13.3495 L 21.5093 12.9261 L 21.2338 12.4726 L 21.0022 11.9919 L 20.8173 11.4865 L 20.6817 10.9594 L 20.5984 10.4133 L 20.57 9.85098 L 20.5984 9.28863 L 20.6817 8.74253 L 20.8173 8.21544 L 21.0022 7.71012 L 21.2338 7.22935 L 21.5093 6.77587 L 21.8259 6.35247 L 22.1809 5.96189 L 22.5715 5.60692 L 22.9949 5.2903 L 23.4484 5.01481 L 23.9292 4.78321 L 24.4345 4.59826 L 24.9616 4.46274 L 25.5077 4.37939 L 26.07 4.351 L 26.07 4.351"
       style="fill:none;stroke:#000003;stroke-width:0.0762;stroke-linecap:butt;stroke-linejoin:miter;stroke-miterlimit:22.9256;stroke-dasharray:none;stroke-opacity:1"
       id="path64" />
    <path
       d="M 38.8282 4.351 L 39.3906 4.37939 L 39.9367 4.46274 L 40.4638 4.59826 L 40.9691 4.78321 L 41.4499 5.01481 L 41.9033 5.2903 L 42.3267 5.60692 L 42.7173 5.96189 L 43.0723 6.35247 L 43.3889 6.77587 L 43.6644 7.22935 L 43.896 7.71012 L 44.0809 8.21544 L 44.2165 8.74253 L 44.2998 9.28863 L 44.3282 9.85098 L 44.2998 10.4133 L 44.2165 10.9594 L 44.0809 11.4865 L 43.896 11.9919 L 43.6644 12.4726 L 43.3889 12.9261 L 43.0723 13.3495 L 42.7173 13.7401 L 42.3267 14.0951 L 41.9033 14.4117 L 41.4499 14.6872 L 40.9691 14.9188 L 40.4638 15.1037 L 39.9367 15.2393 L 39.3906 15.3226 L 38.8282 15.351 L 38.2659 15.3226 L 37.7198 15.2393 L 37.1927 15.1037 L 36.6873 14.9188 L 36.2066 14.6872 L 35.7531 14.4117 L 35.3297 14.0951 L 34.9391 13.7401 L 34.5841 13.3495 L 34.2675 12.9261 L 33.992 12.4726 L 33.7604 11.9919 L 33.5755 11.4865 L 33.4399 10.9594 L 33.3566 10.4133 L 33.3282 9.85098 L 33.3566 9.28863 L 33.4399 8.74253 L 33.5755 8.21544 L 33.7604 7.71012 L 33.992 7.22935 L 34.2675 6.77587 L 34.5841 6.35247 L 34.9391 5.96189 L 35.3297 5.60692 L 35.7531 5.2903 L 36.2066 5.01481 L 36.6873 4.78321 L 37.1927 4.59826 L 37.7198 4.46274 L 38.2659 4.37939 L 38.8282 4.351 L 38.8282 4.351"
       style="fill:none;stroke:#000003;stroke-width:0.0762;stroke-linecap:butt;stroke-linejoin:miter;stroke-miterlimit:22.9256;stroke-dasharray:none;stroke-opacity:1"
       id="path66" />
    <path
       d="M 51.4702 4.351 L 52.0325 4.37939 L 52.5787 4.46274 L 53.1057 4.59826 L 53.6111 4.78321 L 54.0918 5.01481 L 54.5453 5.2903 L 54.9687 5.60692 L 55.3593 5.96189 L 55.7143 6.35247 L 56.0309 6.77587 L 56.3064 7.22935 L 56.538 7.71012 L 56.7229 8.21544 L 56.8585 8.74253 L 56.9418 9.28863 L 56.9702 9.85098 L 56.9418 10.4133 L 56.8585 10.9594 L 56.7229 11.4865 L 56.538 11.9919 L 56.3064 12.4726 L 56.0309 12.9261 L 55.7143 13.3495 L 55.3593 13.7401 L 54.9687 14.0951 L 54.5453 14.4117 L 54.0918 14.6872 L 53.6111 14.9188 L 53.1057 15.1037 L 52.5787 15.2393 L 52.0325 15.3226 L 51.4702 15.351 L 50.9078 15.3226 L 50.3617 15.2393 L 49.8346 15.1037 L 49.3293 14.9188 L 48.8486 14.6872 L 48.3951 14.4117 L 47.9717 14.0951 L 47.5811 13.7401 L 47.2261 13.3495 L 46.9095 12.9261 L 46.634 12.4726 L 46.4024 11.9919 L 46.2175 11.4865 L 46.0819 10.9594 L 45.9986 10.4133 L 45.9702 9.85098 L 45.9986 9.28863 L 46.0819 8.74253 L 46.2175 8.21544 L 46.4024 7.71012 L 46.634 7.22935 L 46.9095 6.77587 L 47.2261 6.35247 L 47.5811 5.96189 L 47.9717 5.60692 L 48.3951 5.2903 L 48.8486 5.01481 L 49.3293 4.78321 L 49.8346 4.59826 L 50.3617 4.46274 L 50.9078 4.37939 L 51.4702 4.351 L 51.4702 4.351"
       style="fill:none;stroke:#000003;stroke-width:0.0762;stroke-linecap:butt;stroke-linejoin:miter;stroke-miterlimit:22.9256;stroke-dasharray:none;stroke-opacity:1"
       id="path68" />
    <path
       d="M 64.2122 4.351 L 64.7746 4.37939 L 65.3207 4.46274 L 65.8477 4.59826 L 66.3531 4.78321 L 66.8338 5.01481 L 67.2873 5.2903 L 67.7107 5.60692 L 68.1013 5.96189 L 68.4563 6.35247 L 68.7729 6.77587 L 69.0484 7.22935 L 69.28 7.71012 L 69.465 8.21544 L 69.6005 8.74253 L 69.6838 9.28863 L 69.7122 9.85098 L 69.6838 10.4133 L 69.6005 10.9594 L 69.465 11.4865 L 69.28 11.9919 L 69.0484 12.4726 L 68.7729 12.9261 L 68.4563 13.3495 L 68.1013 13.7401 L 67.7107 14.0951 L 67.2873 14.4117 L 66.8338 14.6872 L 66.3531 14.9188 L 65.8477 15.1037 L 65.3207 15.2393 L 64.7746 15.3226 L 64.2122 15.351 L 63.6499 15.3226 L 63.1038 15.2393 L 62.5767 15.1037 L 62.0713 14.9188 L 61.5906 14.6872 L 61.1371 14.4117 L 60.7137 14.0951 L 60.3231 13.7401 L 59.9681 13.3495 L 59.6515 12.9261 L 59.376 12.4726 L 59.1444 11.9919 L 58.9595 11.4865 L 58.824 10.9594 L 58.7406 10.4133 L 58.7122 9.85098 L 58.7406 9.28863 L 58.824 8.74253 L 58.9595 8.21544 L 59.1444 7.71012 L 59.376 7.22935 L 59.6515 6.77587 L 59.9681 6.35247 L 60.3231 5.96189 L 60.7137 5.60692 L 61.1371 5.2903 L 61.5906 5.01481 L 62.0713 4.78321 L 62.5767 4.59826 L 63.1038 4.46274 L 63.6499 4.37939 L 64.2122 4.351 L 64.2122 4.351"
       style="fill:none;stroke:#000003;stroke-width:0.0762;stroke-linecap:butt;stroke-linejoin:miter;stroke-miterlimit:22.9256;stroke-dasharray:none;stroke-opacity:1"
       id="path70" />
    <path
       d="M 76.9314 4.351 L 77.4937 4.37939 L 78.0398 4.46274 L 78.5669 4.59826 L 79.0723 4.78321 L 79.553 5.01481 L 80.0065 5.2903 L 80.4299 5.60692 L 80.8205 5.96189 L 81.1755 6.35247 L 81.4921 6.77587 L 81.7676 7.22935 L 81.9992 7.71012 L 82.1841 8.21544 L 82.3197 8.74253 L 82.403 9.28863 L 82.4314 9.85098 L 82.403 10.4133 L 82.3197 10.9594 L 82.1841 11.4865 L 81.9992 11.9919 L 81.7676 12.4726 L 81.4921 12.9261 L 81.1755 13.3495 L 80.8205 13.7401 L 80.4299 14.0951 L 80.0065 14.4117 L 79.553 14.6872 L 79.0723 14.9188 L 78.5669 15.1037 L 78.0398 15.2393 L 77.4937 15.3226 L 76.9314 15.351 L 76.369 15.3226 L 75.8229 15.2393 L 75.2959 15.1037 L 74.7905 14.9188 L 74.3098 14.6872 L 73.8563 14.4117 L 73.4329 14.0951 L 73.0423 13.7401 L 72.6873 13.3495 L 72.3707 12.9261 L 72.0952 12.4726 L 71.8636 11.9919 L 71.6787 11.4865 L 71.5432 10.9594 L 71.4598 10.4133 L 71.4314 9.85098 L 71.4598 9.28863 L 71.5432 8.74253 L 71.6787 8.21544 L 71.8636 7.71012 L 72.0952 7.22935 L 72.3707 6.77587 L 72.6873 6.35247 L 73.0423 5.96189 L 73.4329 5.60692 L 73.8563 5.2903 L 74.3098 5.01481 L 74.7905 4.78321 L 75.2959 4.59826 L 75.8229 4.46274 L 76.369 4.37939 L 76.9314 4.351 L 76.9314 4.351"
       style="fill:none;stroke:#000003;stroke-width:0.0762;stroke-linecap:butt;stroke-linejoin:miter;stroke-miterlimit:22.9256;stroke-dasharray:none;stroke-opacity:1"
       id="path72" />
    <path
       d="M 13.3823 24.4682 L 13.9446 24.4966 L 14.4908 24.5799 L 15.0178 24.7155 L 15.5232 24.9004 L 16.0039 25.132 L 16.4574 25.4075 L 16.8808 25.7241 L 17.2714 26.0791 L 17.6264 26.4697 L 17.943 26.8931 L 18.2185 27.3466 L 18.4501 27.8273 L 18.635 28.3327 L 18.7706 28.8598 L 18.8539 29.4059 L 18.8823 29.9682 L 18.8539 30.5306 L 18.7706 31.0767 L 18.635 31.6037 L 18.4501 32.1091 L 18.2185 32.5898 L 17.943 33.0433 L 17.6264 33.4667 L 17.2714 33.8573 L 16.8808 34.2123 L 16.4574 34.5289 L 16.0039 34.8044 L 15.5232 35.036 L 15.0178 35.2209 L 14.4908 35.3564 L 13.9446 35.4398 L 13.3823 35.4682 L 12.8199 35.4398 L 12.2738 35.3564 L 11.7468 35.2209 L 11.2414 35.036 L 10.7607 34.8044 L 10.3072 34.5289 L 9.88378 34.2123 L 9.4932 33.8573 L 9.13823 33.4667 L 8.82161 33.0433 L 8.54612 32.5898 L 8.31452 32.1091 L 8.12957 31.6037 L 7.99405 31.0767 L 7.9107 30.5306 L 7.88231 29.9682 L 7.9107 29.4059 L 7.99405 28.8598 L 8.12957 28.3327 L 8.31452 27.8273 L 8.54612 27.3466 L 8.82161 26.8931 L 9.13823 26.4697 L 9.4932 26.0791 L 9.88378 25.7241 L 10.3072 25.4075 L 10.7607 25.132 L 11.2414 24.9004 L 11.7468 24.7155 L 12.2738 24.5799 L 12.8199 24.4966 L 13.3823 24.4682 L 13.3823 24.4682"
       style="fill:none;stroke:#000003;stroke-width:0.0762;stroke-linecap:butt;stroke-linejoin:miter;stroke-miterlimit:22.9256;stroke-dasharray:none;stroke-opacity:1"
       id="path74" />
    <path
       d="M 26.07 24.4682 L 26.6324 24.4966 L 27.1785 24.5799 L 27.7056 24.7155 L 28.2109 24.9004 L 28.6916 25.132 L 29.1451 25.4075 L 29.5685 25.7241 L 29.9591 26.0791 L 30.3141 26.4697 L 30.6307 26.8931 L 30.9062 27.3466 L 31.1378 27.8273 L 31.3227 28.3327 L 31.4583 28.8598 L 31.5416 29.4059 L 31.57 29.9682 L 31.5416 30.5306 L 31.4583 31.0767 L 31.3227 31.6037 L 31.1378 32.1091 L 30.9062 32.5898 L 30.6307 33.0433 L 30.3141 33.4667 L 29.9591 33.8573 L 29.5685 34.2123 L 29.1451 34.5289 L 28.6916 34.8044 L 28.2109 35.036 L 27.7056 35.2209 L 27.1785 35.3564 L 26.6324 35.4398 L 26.07 35.4682 L 25.5077 35.4398 L 24.9616 35.3564 L 24.4345 35.2209 L 23.9292 35.036 L 23.4484 34.8044 L 22.9949 34.5289 L 22.5715 34.2123 L 22.1809 33.8573 L 21.8259 33.4667 L 21.5093 33.0433 L 21.2338 32.5898 L 21.0022 32.1091 L 20.8173 31.6037 L 20.6817 31.0767 L 20.5984 30.5306 L 20.57 29.9682 L 20.5984 29.4059 L 20.6817 28.8598 L 20.8173 28.3327 L 21.0022 27.8273 L 21.2338 27.3466 L 21.5093 26.8931 L 21.8259 26.4697 L 22.1809 26.0791 L 22.5715 25.7241 L 22.9949 25.4075 L 23.4484 25.132 L 23.9292 24.9004 L 24.4345 24.7155 L 24.9616 24.5799 L 25.5077 24.4966 L 26.07 24.4682 L 26.07 24.4682"
       style="fill:none;stroke:#000003;stroke-width:0.0762;stroke-linecap:butt;stroke-linejoin:miter;stroke-miterlimit:22.9256;stroke-dasharray:none;stroke-opacity:1"
       id="path76" />
    <path
       d="M 38.8282 24.4682 L 39.3906 24.4966 L 39.9367 24.5799 L 40.4638 24.7155 L 40.9691 24.9004 L 41.4499 25.132 L 41.9033 25.4075 L 42.3267 25.7241 L 42.7173 26.0791 L 43.0723 26.4697 L 43.3889 26.8931 L 43.6644 27.3466 L 43.896 27.8273 L 44.0809 28.3327 L 44.2165 28.8598 L 44.2998 29.4059 L 44.3282 29.9682 L 44.2998 30.5306 L 44.2165 31.0767 L 44.0809 31.6037 L 43.896 32.1091 L 43.6644 32.5898 L 43.3889 33.0433 L 43.0723 33.4667 L 42.7173 33.8573 L 42.3267 34.2123 L 41.9033 34.5289 L 41.4499 34.8044 L 40.9691 35.036 L 40.4638 35.2209 L 39.9367 35.3564 L 39.3906 35.4398 L 38.8282 35.4682 L 38.2659 35.4398 L 37.7198 35.3564 L 37.1927 35.2209 L 36.6873 35.036 L 36.2066 34.8044 L 35.7531 34.5289 L 35.3297 34.2123 L 34.9391 33.8573 L 34.5841 33.4667 L 34.2675 33.0433 L 33.992 32.5898 L 33.7604 32.1091 L 33.5755 31.6037 L 33.4399 31.0767 L 33.3566 30.5306 L 33.3282 29.9682 L 33.3566 29.4059 L 33.4399 28.8598 L 33.5755 28.3327 L 33.7604 27.8273 L 33.992 27.3466 L 34.2675 26.8931 L 34.5841 26.4697 L 34.9391 26.0791 L 35.3297 25.7241 L 35.7531 25.4075 L 36.2066 25.132 L 36.6873 24.9004 L 37.1927 24.7155 L 37.7198 24.5799 L 38.2659 24.4966 L 38.8282 24.4682 L 38.8282 24.4682"
       style="fill:none;stroke:#000003;stroke-width:0.0762;stroke-linecap:butt;stroke-linejoin:miter;stroke-miterlimit:22.9256;stroke-dasharray:none;stroke-opacity:1"
       id="path78" />
    <path
       d="M 51.4702 24.4682 L 52.0325 24.4966 L 52.5787 24.5799 L 53.1057 24.7155 L 53.6111 24.9004 L 54.0918 25.132 L 54.5453 25.4075 L 54.9687 25.7241 L 55.3593 26.0791 L 55.7143 26.4697 L 56.0309 26.8931 L 56.3064 27.3466 L 56.538 27.8273 L 56.7229 28.3327 L 56.8585 28.8598 L 56.9418 29.4059 L 56.9702 29.9682 L 56.9418 30.5306 L 56.8585 31.0767 L 56.7229 31.6037 L 56.538 32.1091 L 56.3064 32.5898 L 56.0309 33.0433 L 55.7143 33.4667 L 55.3593 33.8573 L 54.9687 34.2123 L 54.5453 34.5289 L 54.0918 34.8044 L 53.6111 35.036 L 53.1057 35.2209 L 52.5787 35.3564 L 52.0325 35.4398 L 51.4702 35.4682 L 50.9078 35.4398 L 50.3617 35.3564 L 49.8346 35.2209 L 49.3293 35.036 L 48.8486 34.8044 L 48.3951 34.5289 L 47.9717 34.2123 L 47.5811 33.8573 L 47.2261 33.4667 L 46.9095 33.0433 L 46.634 32.5898 L 46.4024 32.1091 L 46.2175 31.6037 L 46.0819 31.0767 L 45.9986 30.5306 L 45.9702 29.9682 L 45.9986 29.4059 L 46.0819 28.8598 L 46.2175 28.3327 L 46.4024 27.8273 L 46.634 27.3466 L 46.9095 26.8931 L 47.2261 26.4697 L 47.5811 26.0791 L 47.9717 25.7241 L 48.3951 25.4075 L 48.8486 25.132 L 49.3293 24.9004 L 49.8346 24.7155 L 50.3617 24.5799 L 50.9078 24.4966 L 51.4702 24.4682 L 51.4702 24.4682"
       style="fill:none;stroke:#000003;stroke-width:0.0762;stroke-linecap:butt;stroke-linejoin:miter;stroke-miterlimit:22.9256;stroke-dasharray:none;stroke-opacity:1"
       id="path80" />
    <path
       d="M 3.26702 1.80098 L 3.4306 1.80924 L 3.58946 1.83348 L 3.74279 1.8729 L 3.88979 1.9267 L 4.02966 1.99406 L 4.16159 2.0742 L 4.39841 2.26956 L 4.59381 2.50635 L 4.67397 2.63827 L 4.74135 2.77814 L 4.79517 2.92515 L 4.8346 3.0785 L 4.85886 3.23739 L 4.86712 3.401 L 4.85886 3.56461 L 4.8346 3.72349 L 4.79517 3.87684 L 4.74135 4.02385 L 4.67397 4.16371 L 4.59381 4.29563 L 4.39841 4.53241 L 4.16159 4.72777 L 4.02966 4.80791 L 3.88979 4.87528 L 3.74279 4.92907 L 3.58946 4.96849 L 3.4306 4.99273 L 3.26702 5.00099 L 3.10344 4.99273 L 2.94458 4.96849 L 2.79124 4.92907 L 2.64423 4.87528 L 2.50436 4.80791 L 2.37243 4.72777 L 2.13561 4.53241 L 1.9402 4.29563 L 1.86005 4.16371 L 1.79266 4.02385 L 1.73884 3.87684 L 1.69941 3.72349 L 1.67516 3.56461 L 1.66689 3.401 L 1.67516 3.23739 L 1.69941 3.0785 L 1.73884 2.92515 L 1.79266 2.77814 L 1.86005 2.63827 L 1.9402 2.50635 L 2.13561 2.26956 L 2.37243 2.0742 L 2.50436 1.99406 L 2.64423 1.9267 L 2.79124 1.8729 L 2.94458 1.83348 L 3.10344 1.80924 L 3.26702 1.80098 L 3.26702 1.80098"
       style="fill:none;stroke:#1a1a18;stroke-width:0.19999;stroke-linecap:butt;stroke-linejoin:miter;stroke-miterlimit:22.9256;stroke-dasharray:none;stroke-opacity:1"
       id="path54" />
    <path
       d="M 85.8729 1.80098 L 86.0365 1.80924 L 86.1953 1.83348 L 86.3487 1.8729 L 86.4957 1.9267 L 86.6356 1.99406 L 86.7675 2.0742 L 87.0043 2.26956 L 87.1997 2.50635 L 87.2799 2.63827 L 87.3472 2.77814 L 87.401 2.92515 L 87.4405 3.0785 L 87.4647 3.23739 L 87.473 3.401 L 87.4647 3.56461 L 87.4405 3.72349 L 87.401 3.87684 L 87.3472 4.02385 L 87.2799 4.16371 L 87.1997 4.29563 L 87.0043 4.53241 L 86.7675 4.72777 L 86.6356 4.80791 L 86.4957 4.87528 L 86.3487 4.92907 L 86.1953 4.96849 L 86.0365 4.99273 L 85.8729 5.00099 L 85.7093 4.99273 L 85.5505 4.96849 L 85.3971 4.92907 L 85.2501 4.87528 L 85.1102 4.80791 L 84.9783 4.72777 L 84.7415 4.53241 L 84.5461 4.29563 L 84.466 4.16371 L 84.3986 4.02385 L 84.3448 3.87684 L 84.3053 3.72349 L 84.2811 3.56461 L 84.2728 3.401 L 84.2811 3.23739 L 84.3053 3.0785 L 84.3448 2.92515 L 84.3986 2.77814 L 84.466 2.63827 L 84.5461 2.50635 L 84.7415 2.26956 L 84.9783 2.0742 L 85.1102 1.99406 L 85.2501 1.9267 L 85.3971 1.8729 L 85.5505 1.83348 L 85.7093 1.80924 L 85.8729 1.80098 L 85.8729 1.80098"
       style="fill:none;stroke:#1a1a18;stroke-width:0.19999;stroke-linecap:butt;stroke-linejoin:miter;stroke-miterlimit:22.9256;stroke-dasharray:none;stroke-opacity:1"
       id="path56" />
    <path
       d="M 3.26702 34.6482 L 3.4306 34.6564 L 3.58946 34.6807 L 3.74279 34.7201 L 3.88979 34.7739 L 4.02966 34.8413 L 4.16159 34.9214 L 4.39841 35.1168 L 4.59381 35.3536 L 4.67397 35.4855 L 4.74135 35.6253 L 4.79517 35.7723 L 4.8346 35.9257 L 4.85886 36.0846 L 4.86712 36.2482 L 4.85886 36.4118 L 4.8346 36.5707 L 4.79517 36.724 L 4.74135 36.871 L 4.67397 37.0109 L 4.59381 37.1428 L 4.39841 37.3796 L 4.16159 37.575 L 4.02966 37.6551 L 3.88979 37.7225 L 3.74279 37.7763 L 3.58946 37.8157 L 3.4306 37.8399 L 3.26702 37.8482 L 3.10344 37.8399 L 2.94458 37.8157 L 2.79124 37.7763 L 2.64423 37.7225 L 2.50436 37.6551 L 2.37243 37.575 L 2.13561 37.3796 L 1.9402 37.1428 L 1.86005 37.0109 L 1.79266 36.871 L 1.73884 36.724 L 1.69941 36.5707 L 1.67516 36.4118 L 1.66689 36.2482 L 1.67516 36.0846 L 1.69941 35.9257 L 1.73884 35.7723 L 1.79266 35.6253 L 1.86005 35.4855 L 1.9402 35.3536 L 2.13561 35.1168 L 2.37243 34.9214 L 2.50436 34.8413 L 2.64423 34.7739 L 2.79124 34.7201 L 2.94458 34.6807 L 3.10344 34.6564 L 3.26702 34.6482 L 3.26702 34.6482"
       style="fill:none;stroke:#1a1a18;stroke-width:0.19999;stroke-linecap:butt;stroke-linejoin:miter;stroke-miterlimit:22.9256;stroke-dasharray:none;stroke-opacity:1"
       id="path58" />
    <path
       d="M 85.8729 34.6482 L 86.0365 34.6564 L 86.1953 34.6807 L 86.3487 34.7201 L 86.4957 34.7739 L 86.6356 34.8413 L 86.7675 34.9214 L 87.0043 35.1168 L 87.1997 35.3536 L 87.2799 35.4855 L 87.3472 35.6253 L 87.401 35.7723 L 87.4405 35.9257 L 87.4647 36.0846 L 87.473 36.2482 L 87.4647 36.4118 L 87.4405 36.5707 L 87.401 36.724 L 87.3472 36.871 L 87.2799 37.0109 L 87.1997 37.1428 L 87.0043 37.3796 L 86.7675 37.575 L 86.6356 37.6551 L 86.4957 37.7225 L 86.3487 37.7763 L 86.1953 37.8157 L 86.0365 37.8399 L 85.8729 37.8482 L 85.7093 37.8399 L 85.5505 37.8157 L 85.3971 37.7763 L 85.2501 37.7225 L 85.1102 37.6551 L 84.9783 37.575 L 84.7415 37.3796 L 84.5461 37.1428 L 84.466 37.0109 L 84.3986 36.871 L 84.3448 36.724 L 84.3053 36.5707 L 84.2811 36.4118 L 84.2728 36.2482 L 84.2811 36.0846 L 84.3053 35.9257 L 84.3448 35.7723 L 84.3986 35.6253 L 84.466 35.4855 L 84.5461 35.3536 L 84.7415 35.1168 L 84.9783 34.9214 L 85.1102 34.8413 L 85.2501 34.7739 L 85.3971 34.7201 L 85.5505 34.6807 L 85.7093 34.6564 L 85.8729 34.6482 L 85.8729 34.6482"
       style="fill:none;stroke:#1a1a18;stroke-width:0.19999;stroke-linecap:butt;stroke-linejoin:miter;stroke-miterlimit:22.9256;stroke-dasharray:none;stroke-opacity:1"
       id="path60" />
    <path
       d="M 7.11802 15.201 L 7.29941 15.2193 L 7.46836 15.2717 L 7.62124 15.3547 L 7.75443 15.4646 L 7.86433 15.5978 L 7.9473 15.7507 L 7.99974 15.9196 L 8.01802 16.101 L 7.99974 16.2824 L 7.9473 16.4513 L 7.86433 16.6042 L 7.75443 16.7374 L 7.62124 16.8473 L 7.46836 16.9303 L 7.29941 16.9827 L 7.11802 17.001 L 6.93662 16.9827 L 6.76768 16.9303 L 6.6148 16.8473 L 6.4816 16.7374 L 6.37171 16.6042 L 6.28873 16.4513 L 6.23629 16.2824 L 6.21801 16.101 L 6.23629 15.9196 L 6.28873 15.7507 L 6.37171 15.5978 L 6.4816 15.4646 L 6.6148 15.3547 L 6.76768 15.2717 L 6.93662 15.2193 L 7.11802 15.201 L 7.11802 15.201"
       style="fill:none;stroke:#1a1a18;stroke-width:0.19999;stroke-linecap:butt;stroke-linejoin:miter;stroke-miterlimit:22.9256;stroke-dasharray:none;stroke-opacity:1"
       id="path84" />
    <path
       d="M 19.816 15.201 L 19.9974 15.2193 L 20.1663 15.2717 L 20.3192 15.3547 L 20.4524 15.4646 L 20.5623 15.5978 L 20.6453 15.7507 L 20.6977 15.9196 L 20.716 16.101 L 20.6977 16.2824 L 20.6453 16.4513 L 20.5623 16.6042 L 20.4524 16.7374 L 20.3192 16.8473 L 20.1663 16.9303 L 19.9974 16.9827 L 19.816 17.001 L 19.6346 16.9827 L 19.4657 16.9303 L 19.3128 16.8473 L 19.1796 16.7374 L 19.0697 16.6042 L 18.9867 16.4513 L 18.9343 16.2824 L 18.916 16.101 L 18.9343 15.9196 L 18.9867 15.7507 L 19.0697 15.5978 L 19.1796 15.4646 L 19.3128 15.3547 L 19.4657 15.2717 L 19.6346 15.2193 L 19.816 15.201 L 19.816 15.201"
       style="fill:none;stroke:#1a1a18;stroke-width:0.19999;stroke-linecap:butt;stroke-linejoin:miter;stroke-miterlimit:22.9256;stroke-dasharray:none;stroke-opacity:1"
       id="path86" />
    <path
       d="M 32.514 15.201 L 32.6954 15.2193 L 32.8643 15.2717 L 33.0172 15.3547 L 33.1504 15.4646 L 33.2603 15.5978 L 33.3433 15.7507 L 33.3957 15.9196 L 33.414 16.101 L 33.3957 16.2824 L 33.3433 16.4513 L 33.2603 16.6042 L 33.1504 16.7374 L 33.0172 16.8473 L 32.8643 16.9303 L 32.6954 16.9827 L 32.514 17.001 L 32.3326 16.9827 L 32.1637 16.9303 L 32.0108 16.8473 L 31.8776 16.7374 L 31.7677 16.6042 L 31.6847 16.4513 L 31.6323 16.2824 L 31.614 16.101 L 31.6323 15.9196 L 31.6847 15.7507 L 31.7677 15.5978 L 31.8776 15.4646 L 32.0108 15.3547 L 32.1637 15.2717 L 32.3326 15.2193 L 32.514 15.201 L 32.514 15.201"
       style="fill:none;stroke:#1a1a18;stroke-width:0.19999;stroke-linecap:butt;stroke-linejoin:miter;stroke-miterlimit:22.9256;stroke-dasharray:none;stroke-opacity:1"
       id="path88" />
    <path
       d="M 45.212 15.201 L 45.3934 15.2193 L 45.5624 15.2717 L 45.7152 15.3547 L 45.8484 15.4646 L 45.9583 15.5978 L 46.0413 15.7507 L 46.0937 15.9196 L 46.112 16.101 L 46.0937 16.2824 L 46.0413 16.4513 L 45.9583 16.6042 L 45.8484 16.7374 L 45.7152 16.8473 L 45.5624 16.9303 L 45.3934 16.9827 L 45.212 17.001 L 45.0306 16.9827 L 44.8617 16.9303 L 44.7088 16.8473 L 44.5756 16.7374 L 44.4657 16.6042 L 44.3827 16.4513 L 44.3303 16.2824 L 44.312 16.101 L 44.3303 15.9196 L 44.3827 15.7507 L 44.4657 15.5978 L 44.5756 15.4646 L 44.7088 15.3547 L 44.8617 15.2717 L 45.0306 15.2193 L 45.212 15.201 L 45.212 15.201"
       style="fill:none;stroke:#1a1a18;stroke-width:0.19999;stroke-linecap:butt;stroke-linejoin:miter;stroke-miterlimit:22.9256;stroke-dasharray:none;stroke-opacity:1"
       id="path90" />
    <path
       d="M 70.6218 15.201 L 70.8032 15.2193 L 70.9721 15.2717 L 71.125 15.3547 L 71.2582 15.4646 L 71.3681 15.5978 L 71.4511 15.7507 L 71.5035 15.9196 L 71.5218 16.101 L 71.5035 16.2824 L 71.4511 16.4513 L 71.3681 16.6042 L 71.2582 16.7374 L 71.125 16.8473 L 70.9721 16.9303 L 70.8032 16.9827 L 70.6218 17.001 L 70.4404 16.9827 L 70.2715 16.9303 L 70.1186 16.8473 L 69.9854 16.7374 L 69.8755 16.6042 L 69.7925 16.4513 L 69.7401 16.2824 L 69.7218 16.101 L 69.7401 15.9196 L 69.7925 15.7507 L 69.8755 15.5978 L 69.9854 15.4646 L 70.1186 15.3547 L 70.2715 15.2717 L 70.4404 15.2193 L 70.6218 15.201 L 70.6218 15.201"
       style="fill:none;stroke:#1a1a18;stroke-width:0.19999;stroke-linecap:butt;stroke-linejoin:miter;stroke-miterlimit:22.9256;stroke-dasharray:none;stroke-opacity:1"
       id="path92" />
    <path
       d="M 2.00351 0.0999915 L 87.1205 0.0999915 L 87.3144 0.109866 L 87.5029 0.13884 L 87.685 0.185936 L 87.8596 0.250181 L 88.0259 0.330597 L 88.1829 0.42621 L 88.3295 0.536043 L 88.4649 0.659122 L 88.588 0.794471 L 88.6978 0.941113 L 88.7934 1.09807 L 88.8738 1.26438 L 88.9381 1.43905 L 88.9852 1.62111 L 89.0141 1.80959 L 89.024 2.00351 L 89.024 37.6795 L 89.0141 37.8734 L 88.9852 38.0619 L 88.9381 38.244 L 88.8738 38.4186 L 88.7934 38.5849 L 88.6978 38.7419 L 88.588 38.8885 L 88.4649 39.0239 L 88.3295 39.1469 L 88.1829 39.2568 L 88.0259 39.3524 L 87.8596 39.4328 L 87.685 39.497 L 87.5029 39.5441 L 87.3144 39.5731 L 87.1205 39.583 L 2.00351 39.583 L 1.8096 39.5731 L 1.62112 39.5441 L 1.43905 39.497 L 1.26438 39.4328 L 1.09808 39.3524 L 0.941118 39.2568 L 0.794476 39.1469 L 0.659127 39.0239 L 0.536048 38.8885 L 0.426215 38.7419 L 0.330602 38.5849 L 0.250185 38.4186 L 0.185941 38.244 L 0.138844 38.0619 L 0.109871 37.8734 L 0.0999964 37.6795 L 0.0999964 2.00351 L 0.109871 1.80959 L 0.138844 1.62111 L 0.185941 1.43905 L 0.250185 1.26438 L 0.330602 1.09807 L 0.426215 0.941113 L 0.536048 0.794471 L 0.659127 0.659122 L 0.794476 0.536043 L 0.941118 0.42621 L 1.09808 0.330597 L 1.26438 0.250181 L 1.43905 0.185936 L 1.62112 0.13884 L 1.8096 0.109866 L 2.00351 0.0999915 L 2.00351 0.0999915"
       style="fill:none;stroke:#1a1a18;stroke-width:0.19999;stroke-linecap:butt;stroke-linejoin:miter;stroke-miterlimit:22.9256;stroke-dasharray:none;stroke-opacity:1"
       id="path82" />
  </g>
  <g
     inkscape:label="F.SilkS"
     inkscape:groupmode="layer"
     id="g21"
     style="display:inline">
    <text
       style="font-variant:normal;font-size:3.52778px;font-family:'MS Gothic';-inkscape-font-specification:MS-Gothic;writing-mode:lr-tb;fill:#e6330f;fill-opacity:1;fill-rule:nonzero;stroke:none;stroke-width:0.352778"
       id="text96"
       x="12.333306"
       y="19.715599"><tspan
         x="12.333306"
         y="19.715599"
         id="tspan94"
         style="stroke-width:0.352778">1</tspan></text>
    <text
       style="font-variant:normal;font-size:3.52778px;font-family:'MS Gothic';-inkscape-font-specification:MS-Gothic;writing-mode:lr-tb;fill:#e6330f;fill-opacity:1;fill-rule:nonzero;stroke:none;stroke-width:0.352778"
       id="text100"
       x="25.201899"
       y="19.715599"><tspan
         x="25.201899"
         y="19.715599"
         id="tspan98"
         style="stroke-width:0.352778">2</tspan></text>
    <text
       style="font-variant:normal;font-size:3.52778px;font-family:'MS Gothic';-inkscape-font-specification:MS-Gothic;writing-mode:lr-tb;fill:#e6330f;fill-opacity:1;fill-rule:nonzero;stroke:none;stroke-width:0.352778"
       id="text104"
       x="37.9739"
       y="19.715599"><tspan
         x="37.9739"
         y="19.715599"
         id="tspan102"
         style="stroke-width:0.352778">3</tspan></text>
    <text
       style="font-variant:normal;font-size:3.52778px;font-family:'MS Gothic';-inkscape-font-specification:MS-Gothic;writing-mode:lr-tb;fill:#e6330f;fill-opacity:1;fill-rule:nonzero;stroke:none;stroke-width:0.352778"
       id="text108"
       x="50.569302"
       y="19.715599"><tspan
         x="50.569302"
         y="19.715599"
         id="tspan106"
         style="stroke-width:0.352778">4</tspan></text>
    <text
       transform="matrix(0,-0.96968628,1.0312614,0,0,0)"
       style="font-variant:normal;font-weight:normal;font-size:2.73655px;font-family:'Special Elite';-inkscape-font-specification:SpecialElite-Regular;writing-mode:lr-tb;fill:#e6330f;fill-opacity:1;fill-rule:nonzero;stroke:none;stroke-width:0.342084"
       id="text112"
       x="-33.651203"
       y="3.6944206"><tspan
         x="-33.651203 -32.228199 -30.673838 -28.864979 -27.19021 -25.583857 -24.029497 -22.220638 -21.262846 -19.765953 -18.167809 -16.350739 -14.968889 -13.471995 -11.816384 -10.21824 -8.7213469"
         y="3.6944206"
         sodipodi:role="line"
         id="tspan110"
         style="stroke-width:0.342084">six4pix.com/cvocd</tspan></text>
    <text
       style="font-variant:normal;font-size:1.76389px;font-family:'MS Gothic';-inkscape-font-specification:MS-Gothic;writing-mode:lr-tb;fill:#e6330f;fill-opacity:1;fill-rule:nonzero;stroke:none;stroke-width:0.352778"
       id="text122"
       x="85.42099"
       y="8.3145981"><tspan
         x="85.42099 86.30294 87.184883 88.066826"
         y="8.3145981"
         sodipodi:role="line"
         id="tspan114"
         style="stroke-width:0.352778">MAX</tspan><tspan
         x="83.657104 84.539047 85.42099 86.30294 87.184883 88.066826"
         y="10.078382"
         sodipodi:role="line"
         id="tspan116"
         style="stroke-width:0.352778">15VDC</tspan><tspan
         x="82.775192 83.657143 84.539085 85.421028 86.302971 87.184914"
         y="11.84227"
         sodipodi:role="line"
         id="tspan118"
         style="stroke-width:0.352778">CENTRE</tspan><tspan
         x="85.421097 86.30304 87.18499"
         y="13.606053"
         sodipodi:role="line"
         id="tspan120"
         style="stroke-width:0.352778">NEG</tspan></text>
    <text
       style="font-variant:normal;font-size:3.52778px;font-family:'MS Gothic';-inkscape-font-specification:MS-Gothic;writing-mode:lr-tb;fill:#e6330f;fill-opacity:1;fill-rule:nonzero;stroke:none;stroke-width:0.352778"
       id="text126"
       x="66.163811"
       y="3.8226082"><tspan
         x="66.163811 67.927696 69.691582 71.455475 73.21936"
         y="3.8226082"
         sodipodi:role="line"
         id="tspan124"
         style="stroke-width:0.352778">POWER</tspan></text>
    <text
       style="font-variant:normal;font-size:3.52778px;font-family:'MS Gothic';-inkscape-font-specification:MS-Gothic;writing-mode:lr-tb;fill:#e6330f;fill-opacity:1;fill-rule:nonzero;stroke:none;stroke-width:0.352778"
       id="text130"
       x="27.911407"
       y="3.8226082"><tspan
         x="27.911407 29.675297 31.439186 33.203075 34.966965"
         y="3.8226082"
         sodipodi:role="line"
         id="tspan128"
         style="stroke-width:0.352778">INPUT</tspan></text>
    <text
       style="font-variant:normal;font-size:3.52778px;font-family:'MS Gothic';-inkscape-font-specification:MS-Gothic;writing-mode:lr-tb;fill:#e6330f;fill-opacity:1;fill-rule:nonzero;stroke:none;stroke-width:0.352778"
       id="text134"
       x="27.256723"
       y="38.912601"><tspan
         x="27.256723 29.020613 30.7845 32.548389 34.312279 36.076168"
         y="38.912601"
         sodipodi:role="line"
         id="tspan132"
         style="stroke-width:0.352778">OUTPUT</tspan></text>
    <text
       style="font-variant:normal;font-weight:normal;font-size:5.04649px;font-family:'Special Elite';-inkscape-font-specification:SpecialElite-Regular;writing-mode:lr-tb;fill:#e6330f;fill-opacity:1;fill-rule:nonzero;stroke:none;stroke-width:0.352778"
       id="text138"
       x="59.4575"
       y="27.944599"><tspan
         x="59.4575 62.561092 65.18351 68.181122 71.405823 72.884445 75.932526 79.046204 82.159889 85.132263"
         y="27.944599"
         sodipodi:role="line"
         id="tspan136"
         style="stroke-width:0.352778">GATE BOOST</tspan></text>
    <path
       d="m 51.444402,35.968107 c -0.154481,0.949078 -0.983298,1.679504 -1.97418,1.679504 H 38.057297"
       style="fill:none;stroke:#e3000f;stroke-width:0.300002;stroke-linecap:butt;stroke-linejoin:miter;stroke-miterlimit:22.9256;stroke-dasharray:none;stroke-opacity:1"
       id="path140" />
    <path
       d="m 36.850197,2.3412945 h 12.620025 c 0.931087,0 1.718875,0.644913 1.938902,1.5099947"
       style="fill:none;stroke:#e3000f;stroke-width:0.300002;stroke-linecap:butt;stroke-linejoin:miter;stroke-miterlimit:22.9256;stroke-dasharray:none;stroke-opacity:1"
       id="path142" />
    <path
       d="M 13.444909,3.8512892 C 13.666912,2.9833853 14.453324,2.3412945 15.382294,2.3412945 H 28.002319"
       style="fill:none;stroke:#e3000f;stroke-width:0.300002;stroke-linecap:butt;stroke-linejoin:miter;stroke-miterlimit:22.9256;stroke-dasharray:none;stroke-opacity:1"
       id="path144" />
    <path
       d="m 26.785694,37.647611 h -11.4034 c -0.990988,0 -1.819698,-0.730426 -1.97418,-1.679504"
       style="fill:none;stroke:#e3000f;stroke-width:0.300002;stroke-linecap:butt;stroke-linejoin:miter;stroke-miterlimit:22.9256;stroke-dasharray:none;stroke-opacity:1"
       id="path146" />
    <text
       style="font-variant:normal;font-size:1.76389px;font-family:'MS Gothic';-inkscape-font-specification:MS-Gothic;writing-mode:lr-tb;fill:#e6330f;fill-opacity:1;fill-rule:nonzero;stroke:none;stroke-width:0.352778"
       id="text150"
       x="72.785408"
       y="38.759708"><tspan
         x="72.785408 73.667358 74.549301"
         y="38.759708"
         sodipodi:role="line"
         id="tspan148"
         style="stroke-width:0.352778">1/2</tspan></text>
    <text
       style="font-variant:normal;font-size:1.76389px;font-family:'MS Gothic';-inkscape-font-specification:MS-Gothic;writing-mode:lr-tb;fill:#e6330f;fill-opacity:1;fill-rule:nonzero;stroke:none;stroke-width:0.352778"
       id="text154"
       x="78.474022"
       y="38.759708"><tspan
         x="78.474022 79.355965 80.237915"
         y="38.759708"
         sodipodi:role="line"
         id="tspan152"
         style="stroke-width:0.352778">3/4</tspan></text>
    <text
       style="font-variant:normal;font-size:1.76389px;font-family:'MS Gothic';-inkscape-font-specification:MS-Gothic;writing-mode:lr-tb;fill:#e6330f;fill-opacity:1;fill-rule:nonzero;stroke:none;stroke-width:0.352778"
       id="text162"
       x="71.977692"
       y="32.406887"><tspan
         x="71.977692 72.859634 73.741577 74.623528 75.50547 76.387413 77.269356 78.151299 79.033249 79.915192 80.797134"
         y="32.406887"
         sodipodi:role="line"
         id="tspan156"
         style="stroke-width:0.352778">GATE OUTPUT</tspan><tspan
         x="71.977692 72.859634 73.741577 74.623528 75.50547 76.387413 77.269356 78.151299 79.033249 79.915192 80.797134"
         y="34.170776"
         sodipodi:role="line"
         id="tspan158"
         style="stroke-width:0.352778">UP .....10V</tspan><tspan
         x="71.977692 72.859634 73.741577 74.623528 75.50547 76.387413 77.269356 78.151299 79.033249 79.915192 80.797134"
         y="35.934662"
         sodipodi:role="line"
         id="tspan160"
         style="stroke-width:0.352778">DOWN ...VIN</tspan></text>
    <text
       style="font-variant:normal;font-weight:normal;font-size:10.2662px;font-family:'Special Elite';-inkscape-font-specification:SpecialElite-Regular;writing-mode:lr-tb;fill:#e6330f;fill-opacity:1;fill-rule:nonzero;stroke:none;stroke-width:0.352778"
       id="text166"
       x="55.48452"
       y="23.485596"><tspan
         x="55.48452 61.100124 66.893707 70.48687 76.482323 82.097923"
         y="23.485596"
         sodipodi:role="line"
         id="tspan164"
         style="stroke-width:0.352778">cv.ocd</tspan></text>
    <path
       d="M 76.997719,3.851395 C 76.789509,3.0328094 76.072524,2.4111092 75.206913,2.3470095"
       style="fill:none;stroke:#e3000f;stroke-width:0.300002;stroke-linecap:butt;stroke-linejoin:miter;stroke-miterlimit:22.9256;stroke-dasharray:none;stroke-opacity:1"
       id="path168" />
    <path
       d="m 65.867121,2.3714922 c -0.7741,0.1359959 -1.398517,0.7215011 -1.592297,1.479797"
       style="fill:none;stroke:#e3000f;stroke-width:0.300002;stroke-linecap:butt;stroke-linejoin:miter;stroke-miterlimit:22.9256;stroke-dasharray:none;stroke-opacity:1"
       id="path170" />
  </g>
</svg>
